<svg viewBox="0 128.2882882882883 1440 194.59459459459458" xmlns="http://www.w3.org/2000/svg" style="max-height: 500px" width="1440" height="194.59459459459458"><path d="M0,192L48,202.7C96,213,192,235,288,229.3C384,224,480,192,576,181.3C672,171,768,181,864,208C960,235,1056,277,1152,266.7C1248,256,1344,192,1392,160L1440,128L1440,320L1392,320C1344,320,1248,320,1152,320C1056,320,960,320,864,320C768,320,672,320,576,320C480,320,384,320,288,320C192,320,96,320,48,320L0,320Z" fill-opacity="1" fill="1d1c1cff"/></svg>